<svg width="50" height="44" viewBox="0 0 50 44" fill="none" xmlns="http://www.w3.org/2000/svg">
<g clip-path="url(#clip0)">
<path fill-rule="evenodd" clip-rule="evenodd" d="M11 0C9.34315 0 8 1.34315 8 3V3.95956H4C1.79086 3.95956 0 5.75042 0 7.95956V36C0 40.4183 3.58172 44 8 44H42C46.4183 44 50 40.4183 50 36V7.95956C50 5.75042 48.2091 3.95956 46 3.95956H42V3C42 1.34315 40.6569 0 39 0H11ZM8 3.99999V32C8 34.2091 9.79086 36 12 36H38C40.2091 36 42 34.2091 42 32V3.99999H45V34C45 36.7614 42.7614 39 40 39H10C7.23858 39 5 36.7614 5 34V3.99999H8Z" fill="#3E515D"/>
</g>
<defs>
<clipPath id="clip0">
<rect width="50" height="44" fill="white"/>
</clipPath>
</defs>
</svg>
